<svg width="24" height="24" viewBox="0 0 24 24" fill="none" xmlns="http://www.w3.org/2000/svg">
<path d="M0 0L0 8H6L6 0H0Z" fill="#201304"/>
<path d="M0 0L0 6L8 6V0L0 0Z" fill="#201304"/>
<path d="M3 3V5H5V3H3Z" fill="#422D14"/>
<path fill-rule="evenodd" clip-rule="evenodd" d="M2 2V6H4L6 4V2H2ZM1 7H4L6 6L7 4V1H1V7Z" fill="#422D14"/>
<path d="M5 9V5H9V4H4V9H5Z" fill="#422D14"/>
<path d="M24 0H16V6H24V0Z" fill="#201304"/>
<path d="M24 0H18V8H24V0Z" fill="#201304"/>
<path d="M21 3H19V5H21V3Z" fill="#422D14"/>
<path fill-rule="evenodd" clip-rule="evenodd" d="M22 2H18V4L20 6H22V2ZM17 1V4L18 6L20 7H23V1H17Z" fill="#422D14"/>
<path d="M0 24H8L8 18H0V24Z" fill="#201304"/>
<path d="M0 24H6L6 16H0L0 24Z" fill="#201304"/>
<path d="M3 21H5V19H3L3 21Z" fill="#422D14"/>
<path fill-rule="evenodd" clip-rule="evenodd" d="M2 22H6V20L4 18H2V22ZM7 23V20L6 18L4 17H1V23H7Z" fill="#422D14"/>
<path d="M24 24V16H18V24H24Z" fill="#201304"/>
<path d="M24 24V18H16V24H24Z" fill="#201304"/>
<path d="M21 21V19H19V21H21Z" fill="#422D14"/>
<path fill-rule="evenodd" clip-rule="evenodd" d="M22 22V18H20L18 20V22H22ZM23 17H20L18 18L17 20V23H23V17Z" fill="#422D14"/>
<rect x="4.5" y="4.5" width="15" height="15" stroke="#422D14"/>
<rect x="5.5" y="5.5" width="13" height="13" stroke="#201304"/>
</svg>
