<svg fill="none" viewBox="0 0 70 32" xmlns="http://www.w3.org/2000/svg"><g clip-path="url(#a)" fill="#fff"><path d="m6.029 26.253-2.4294 5.6658h2.1862l0.41276-0.9714h2.7366l0.41276 0.9714h2.1862l-2.4294-5.6658h-3.0765 8e-4zm0.80153 3.2375 0.73673-1.7239 0.73674 1.7239h-1.4735z"/><path d="m12.387 31.919h2.1054v-1.5375h3.6437v-1.7807h-3.6437v-0.5669h3.7245v-1.7807h-5.8299v5.6658z"/><path d="m19.58 31.919h2.1046v-1.5375h3.6445v-1.7807h-3.6445v-0.5669h3.7253v-1.7807h-5.8299v5.6658z"/><path d="m28.879 26.253h-2.1055v5.6658h2.1055v-5.6658z"/><path d="m32.35 26.253h-2.1055v5.6658h5.3444v-1.7806h-3.2389v-3.8852z"/><path d="m39.057 26.253h-2.1054v5.6658h2.1054v-5.6658z"/><path d="m42.511 26.253-2.4294 5.6658h2.1862l0.4128-0.9714h2.7366l0.4127 0.9714h2.1862l-2.4293-5.6658h-3.0766 8e-4zm0.8015 3.2375 0.7368-1.7239 0.7367 1.7239h-1.4735z"/><path d="m47.799 28.034h2.1054v3.8851h2.1055v-3.8851h2.1046v-1.7807h-6.3155v1.7807z"/><path d="m55.252 31.919h5.9914v-1.6191h-3.886v-0.4854h3.8052v-1.4568h-3.8052v-0.4853h3.886v-1.6192h-5.9914v5.6658z"/><path d="m68.707 28.835c-0.4912-0.2911-1.4383-0.4638-2.8422-0.5182-0.5831-0.0215-0.9503-0.0487-1.1015-0.0807-0.1192-0.032-0.1784-0.0944-0.1784-0.1863 0-0.0968 0.0592-0.1615 0.1784-0.1943 0.1672-0.0432 0.5344-0.0648 1.1015-0.0648 0.5184 0 0.8607 0.0296 1.0287 0.0888 0.1728 0.0543 0.2592 0.1727 0.2592 0.3558h2.1054c0-0.7068-0.232-1.217-0.6967-1.5296-0.5184-0.3558-1.4167-0.5341-2.6966-0.5341s-2.1998 0.1535-2.7445 0.4613c-0.4912 0.2807-0.7368 0.7229-0.7368 1.3273 0 0.6045 0.2104 1.0683 0.6312 1.3113 0.4911 0.2911 1.4414 0.459 2.8501 0.5022 0.5616 0.016 0.9311 0.0568 1.1095 0.1215 0.1184 0.0432 0.1784 0.1192 0.1784 0.2263 0 0.0968-0.0624 0.1615-0.1864 0.1943-0.1672 0.0432-0.5343 0.0648-1.1015 0.0648-0.5671 0-0.9583-0.0296-1.1255-0.0888-0.1672-0.0536-0.2512-0.1727-0.2512-0.3558h-2.1054c0 0.7012 0.2456 1.2114 0.7368 1.5296 0.5455 0.3558 1.4598 0.5341 2.7445 0.5341s2.1942-0.1615 2.7446-0.4853c0.4911-0.2911 0.7367-0.742 0.7367-1.3513s-0.2136-1.0739-0.6399-1.3273l0.0016-8e-4z"/><path d="m8.4975 18.992c-1.5711-1.3529-3.4429-3.8547-3.4429-8.1005v-1.6056h-4.7148l6.6122-9.2863h49.453c3.8412 0 6.917 0.92272 9.1408 2.7434 1.6446 1.3529 3.6045 3.8644 3.6045 8.1493 0 2.3643-0.6248 5.697-3.5981 8.1437-2.2278 1.8238-5.3052 2.7482-9.1472 2.7482h-39.016c-3.7349 0-6.7275-0.9395-8.8921-2.7922zm2.2794-2.661c1.5198 1.3001 3.7236 1.9502 6.6122 1.9502 2.8885 0 5.0924-0.6501 6.6122-1.9502 1.4791-1.2729 2.2182-3.0856 2.2182-5.4396v-7.1842h-5.3395v7.1842c0 1.9158-1.1631 2.8737-3.4909 2.8737s-3.4909-0.9579-3.4909-2.8737v-7.1842h-5.3395v7.1842c0 2.354 0.73994 4.1667 2.2182 5.4396zm34.848-12.624v14.368h-6.1603l-6.1603-7.6976v7.6976h-5.3395v-14.368h6.1603l6.1602 7.6976v-7.6976h5.3396zm17.701 1.7455c-1.5879-1.3001-3.8949-1.9502-6.9202-1.9502s-5.3323 0.65006-6.9202 1.9502c-1.5471 1.2729-2.3206 3.0856-2.3206 5.4395 0 2.354 0.7735 4.1667 2.3206 5.4396 1.5879 1.3001 3.8949 1.9502 6.9202 1.9502s5.3315-0.6501 6.9202-1.9502c1.5471-1.2729 2.3206-3.0864 2.3206-5.4396 0-2.3531-0.7735-4.1666-2.3206-5.4395zm-3.0189 5.4387c0 1.9158-1.3007 2.8737-3.9013 2.8737-2.6014 0-3.9021-0.9579-3.9021-2.8737 0-1.9158 1.3015-2.8736 3.9021-2.8736s3.9013 0.9579 3.9013 2.8736z" clip-rule="evenodd" fill-rule="evenodd"/></g><defs><clipPath id="a"><rect transform="translate(.33984)" width="69.007" height="32" fill="#fff"/></clipPath>
</defs></svg>
