<svg xmlns="http://www.w3.org/2000/svg" width="32" height="32" fill="none"><path fill="url(#a)" d="M.117 10.259c-.747 2.534 2.323 4.836 2.323 4.836.602.401-.203-1.602.432-1.35.655.261 1.944 1.57 3.97 2.042 1.934.379 2.696.438 4.712.289l.02.13c-3.109 1.02-6.508 2.174-8.396 5.095a5.596 5.596 0 0 0-.644 1.356c-.091.29.979.1.952.401-.027.297-1.15 1.084-1.098 1.38.104.58.37 1.128.752 1.573.27.316 1.829.257 2.197.447.307.159-.591.588-.25.638.641.096 1.312 0 1.895-.288l-.015.079s-.311 2.605 2.151 3.466c.545.19 1.049.225 1.504.164.266-.035-.818-1.614-.588-1.704.289-.112 1.882 1.253 2.109 1.099.683-.465 1.07-1.016 1.07-1.016 1.652-2.345 2.696-5.214 3.004-8.04 1.224 3.089 1.95 4 1.767 8.197a46.726 46.726 0 0 1-.122 1.847 74.02 74.02 0 0 1-.071.797c-.07.322.291-.536.61-.466.041.01.084.013.125.013.271 0 .357.987.418.706.056-.473.104-.918.143-1.339.038-.404.068-.785.09-1.146.284-4.527-.589-5.938-1.887-9.149 1.533 2.393 3.474 4.513 6.152 5.692 0 0 .58.255 1.37.306.25.017-.723-1.715-.443-1.754.334-.047 1.925 1.583 2.265 1.412.37-.187.73-.462 1.058-.858.229-.277.397-.555.516-.829.146-.333-.455-1.158-.431-1.468.028-.37.659-.219.583-.525-.189-.763-.581-1.275-.581-1.275l-.053-.06a3.28 3.28 0 0 0 2.453-1.527 3.387 3.387 0 0 0 .284-2.909c-.144-.385-2.319-.764-2.586-1.075-.45-.523.92-.906.319-1.2-3.099-1.516-6.598-.727-9.78.025l-.048-.122c1.113-.572 2.969-1.728 3.993-2.42.478-.321-.648-.342-.21-.71.431-.361 1.672-.514 2.052-.931a10.399 10.399 0 0 0 1.726-2.559s1.22-2.568-.706-4.35c-.313-.289-1.362-.167-1.883-.472-.617-.362.245-.995-.384-1.101-1.138-.027-1.759 1.319-1.759 1.319l-.06.052A3.353 3.353 0 0 0 19.735.425c-.45-.313-1.665.31-2.206.257-.448-.044-.217-.808-.643-.664-1.034.35-1.83 1.255-2.33 2.209a8.432 8.432 0 0 0-.672 1.726c-.083.31 2.185-.194 2.133.121-.062.373-2.437 1.564-2.46 1.943-.126 2.042.255 4.151.627 6.14l-.053.021c-.69-1.901-1.432-3.91-2.577-5.596-.167-.245-1.657-.484-1.842-.714-.201-.252.901-.492.675-.723A8.3 8.3 0 0 0 8.78 3.861a5.291 5.291 0 0 0-1.597-.658c-.502-.11-2.428.04-2.928.153-1.515.139 1.87.38 1.479.707-.377.315-2.027-.164-2.23.287-.414.918-.455 2.707.015 3.596l-.078-.013s-1.15-.093-2.135.6c-.234.166.304 1.354.106 1.62-.216.29-1.164-.333-1.294.106Z"/><defs><linearGradient id="a" x1="9.701" x2="-20.871" y1="-39.2" y2="14.641" gradientUnits="userSpaceOnUse"><stop stop-color="#C09740"/><stop offset="1" stop-color="#744810"/></linearGradient></defs></svg>