<svg xmlns="http://www.w3.org/2000/svg" width="32" height="32" fill="none"><path fill="url(#a)" d="M11.59 14.756c-.526.26-1.066.489-1.623.743.268.58.648 1.09 1.098 1.548 1.116 1.134 2.46 1.798 4.052 1.94 1.89.169 3.588-.29 5.033-1.553 1.63-1.426 2.314-3.218 2.006-5.373a7.128 7.128 0 0 0-.106-.542c-.028-.126-.058-.253-.085-.384h3.883c.343 0 .571-.158.657-.491.202-.797.398-1.596.578-2.399.094-.413-.166-.74-.568-.853l-.346-.097c-.573-.158-1.15-.317-1.694-.547-1.93-.816-3.49-2.13-4.799-3.748-.473-.583-.88-1.22-1.343-1.813C17.558.194 16.345-.217 15.208.11c-.801.232-1.383.75-1.835 1.438-.818 1.248-1.774 2.378-2.914 3.343-1.482 1.253-3.14 2.152-5.064 2.515a.579.579 0 0 0-.488.5c-.026.149-.02.314.014.463.169.74.35 1.477.529 2.215.092.384.3.55.693.55h3.28c.06 0 .118.004.166.007l.045.002c-.024.157-.05.31-.076.463-.06.348-.119.688-.138 1.03-.019.34.001.684.02 1.037.01.162.019.325.025.491 1.117-.375 2.079-.883 2.938-1.61-.245-.342-.53-.644-.572-1.083-.06-.615.204-1.35.914-1.413.532-.048 1.072-.011 1.616-.011a9.15 9.15 0 0 0 .807-2.437c.011-.058.055-.15.095-.156.268-.035 1.363-.229 1.298.175a10.303 10.303 0 0 1-.745 2.567c-.068.152-.093.272.012.425.081.117.128.274.143.418a2.082 2.082 0 0 1-2.15 2.302.494.494 0 0 0-.379.14 8.34 8.34 0 0 1-1.852 1.274Z"/><path fill="url(#b)" d="m12.169 32 3.81-.003c.949 0 1.898.002 2.846.003 1.202 0 2.404 0 3.606-.011a6.145 6.145 0 0 0 1.471-.178c1.478-.384 2.536-1.262 3.004-2.759.131-.42.18-.847.19-1.277.008-.34-.007-.683-.024-1.026-.067-1.34-.274-2.654-.74-3.917-.353-.957-.86-1.822-1.62-2.518-.874-.8-1.923-1.163-3.088-1.259-.507-.041-.947.095-1.365.366-.369.238-.744.468-1.128.683-1.028.575-2.13.895-3.312.857-1.164-.037-2.24-.388-3.23-1.003-.338-.21-.673-.426-1.023-.612-.228-.12-.478-.263-.725-.277a4.873 4.873 0 0 0-3.132.88c-1.033.723-1.66 1.755-2.085 2.914-.605 1.65-.79 3.368-.735 5.113.043 1.323.598 2.394 1.686 3.166.851.604 1.82.846 2.846.852.916.004 1.832.005 2.748.005Z"/><defs><linearGradient id="a" x1="11.909" x2="-22.657" y1="-39.2" y2="4.914" gradientUnits="userSpaceOnUse"><stop stop-color="#C09740"/><stop offset="1" stop-color="#744810"/></linearGradient><linearGradient id="b" x1="11.909" x2="-22.657" y1="-39.2" y2="4.914" gradientUnits="userSpaceOnUse"><stop stop-color="#C09740"/><stop offset="1" stop-color="#744810"/></linearGradient></defs></svg>