<svg xmlns="http://www.w3.org/2000/svg" width="32" height="32" fill="none"><mask id="f" width="31" height="31" x=".333" y=".333" fill="#000" maskUnits="userSpaceOnUse"><path fill="#fff" d="M.333.333h31v31h-31z"/><path d="M26.37 1.333h-5.185L14 2l-3.185-.667H5.63c-.506 0-.98.147-1.379.401-.217.139 1.076 4.007.91 4.203-.155.18-1.774-3.318-1.874-3.1-.15.327-.235.691-.235 1.075v9.567h3.162c.586-.759 1.136-.858 2.013-1.092a.86.86 0 0 0 .607-.608c.698-2.608 2.143-2.863 4.038-2.355a.867.867 0 0 0 .83-.223c1.891-1.891 3.168-1.427 4.596 0a.866.866 0 0 0 .83.223c2.554-.684 3.516.405 4.037 2.355a.86.86 0 0 0 .608.608c.877.234 1.427.333 2.013 1.092h3.162V3.912c0-.384-.085-.748-.235-1.076-.115-.249-1.998 2.202-2.182 2.003-.202-.218 1.287-3.08 1.02-3.218a2.562 2.562 0 0 0-1.181-.288ZM11.451 8.014s-.953-.17-1.288-.506l-2.32-1.956c.016-.065.617-.529.617-.529s.634-.105 1.272 0l1.2 2.027c.335.336.52.867.52.964Zm4.991-2.76c0 .475-.244 2.227-.278 2.261-.122-.017-.83-1.707-.83-2.182V4c0-.475.714-1.137.724-1.164.025.027.332.707.332 1.182l.052 1.236ZM24 5.882l-2.319 1.633c-.336.336-1.127.51-1.132.5-.026-.021.596-1.075.931-1.411L22.7 5.29c.336-.336 1.294-.634 1.3-.624-.021.036.01 1.195 0 1.215ZM2.193 25.51c-.295 0-.582.03-.86.087v2.492c0 .393.09.767.248 1.1.132.28.81-.577.824-.55.2.195.138 1.652.392 1.774.337.163.715.254 1.115.254h2.49a4.302 4.302 0 0 0-4.21-5.156ZM25.51 20.354h-5.3A4.3 4.3 0 0 1 16 23.792a4.3 4.3 0 0 1-4.21-3.438h-5.3v5.257a5.99 5.99 0 0 1 1.719 4.196c0 .295-.046.577-.088.86h3.94l2.71-.622 6.32.3 2.787.322c-.04-.283-.087-.565-.087-.86a5.99 5.99 0 0 1 1.719-4.196v-5.257ZM29.808 25.51a4.302 4.302 0 0 0-4.21 5.157h2.49c.452 0 .876-.117 1.245-.321.255-.141-.2-1.902-.007-2.117-.021-.003 1.011 1.149 1.122.9.14-.319.219-.67.219-1.04v-2.491a4.291 4.291 0 0 0-.86-.087Z"/><path d="M28.089 15.198h-6.045l-.6.714-2.422-.714h-6.044l-1.367.465-1.655-.465H3.912a2.581 2.581 0 0 0-2.579 2.578v6.103c.284-.042.565-.087.86-.087.926 0 1.794.228 2.578.603v-7.478H6.49v1.718h5.213v-1.718h1.719v2.578A2.575 2.575 0 0 0 16 22.073a2.575 2.575 0 0 0 2.578-2.578v-2.578h1.719v1.718h5.214v-1.718h1.718v7.478a5.948 5.948 0 0 1 2.579-.603c.294 0 .576.045.859.087v-6.103a2.581 2.581 0 0 0-2.578-2.578Zm-12.097 5.173a.874.874 0 0 1-.868-.868c0-.475.392-.868.868-.868.475 0 .867.393.867.868a.874.874 0 0 1-.867.868Z"/></mask><path fill="url(#a)" d="M26.37 1.333h-5.185L14 2l-3.185-.667H5.63c-.506 0-.98.147-1.379.401-.217.139 1.076 4.007.91 4.203-.155.18-1.774-3.318-1.874-3.1-.15.327-.235.691-.235 1.075v9.567h3.162c.586-.759 1.136-.858 2.013-1.092a.86.86 0 0 0 .607-.608c.698-2.608 2.143-2.863 4.038-2.355a.867.867 0 0 0 .83-.223c1.891-1.891 3.168-1.427 4.596 0a.866.866 0 0 0 .83.223c2.554-.684 3.516.405 4.037 2.355a.86.86 0 0 0 .608.608c.877.234 1.427.333 2.013 1.092h3.162V3.912c0-.384-.085-.748-.235-1.076-.115-.249-1.998 2.202-2.182 2.003-.202-.218 1.287-3.08 1.02-3.218a2.562 2.562 0 0 0-1.181-.288ZM11.451 8.014s-.953-.17-1.288-.506l-2.32-1.956c.016-.065.617-.529.617-.529s.634-.105 1.272 0l1.2 2.027c.335.336.52.867.52.964Zm4.991-2.76c0 .475-.244 2.227-.278 2.261-.122-.017-.83-1.707-.83-2.182V4c0-.475.714-1.137.724-1.164.025.027.332.707.332 1.182l.052 1.236ZM24 5.882l-2.319 1.633c-.336.336-1.127.51-1.132.5-.026-.021.596-1.075.931-1.411L22.7 5.29c.336-.336 1.294-.634 1.3-.624-.021.036.01 1.195 0 1.215Z"/><path fill="url(#b)" d="M2.193 25.51c-.295 0-.582.03-.86.087v2.492c0 .393.09.767.248 1.1.132.28.81-.577.824-.55.2.195.138 1.652.392 1.774.337.163.715.254 1.115.254h2.49a4.302 4.302 0 0 0-4.21-5.156Z"/><path fill="url(#c)" d="M25.51 20.354h-5.3A4.3 4.3 0 0 1 16 23.792a4.3 4.3 0 0 1-4.21-3.438h-5.3v5.257a5.99 5.99 0 0 1 1.719 4.196c0 .295-.046.577-.088.86h3.94l2.71-.622 6.32.3 2.787.322c-.04-.283-.087-.565-.087-.86a5.99 5.99 0 0 1 1.719-4.196v-5.257Z"/><path fill="url(#d)" d="M29.808 25.51a4.302 4.302 0 0 0-4.21 5.157h2.49c.452 0 .876-.117 1.245-.321.255-.141-.2-1.902-.007-2.117-.021-.003 1.011 1.149 1.122.9.14-.319.219-.67.219-1.04v-2.491a4.291 4.291 0 0 0-.86-.087Z"/><path fill="url(#e)" d="M28.089 15.198h-6.045l-.6.714-2.422-.714h-6.044l-1.367.465-1.655-.465H3.912a2.581 2.581 0 0 0-2.579 2.578v6.103c.284-.042.565-.087.86-.087.926 0 1.794.228 2.578.603v-7.478H6.49v1.718h5.213v-1.718h1.719v2.578A2.575 2.575 0 0 0 16 22.073a2.575 2.575 0 0 0 2.578-2.578v-2.578h1.719v1.718h5.214v-1.718h1.718v7.478a5.948 5.948 0 0 1 2.579-.603c.294 0 .576.045.859.087v-6.103a2.581 2.581 0 0 0-2.578-2.578Zm-12.097 5.173a.874.874 0 0 1-.868-.868c0-.475.392-.868.868-.868.475 0 .867.393.867.868a.874.874 0 0 1-.867.868Z"/><path stroke="#40240C" stroke-width=".4" d="M26.37 1.333h-5.185L14 2l-3.185-.667H5.63c-.506 0-.98.147-1.379.401-.217.139 1.076 4.007.91 4.203-.155.18-1.774-3.318-1.874-3.1-.15.327-.235.691-.235 1.075v9.567h3.162c.586-.759 1.136-.858 2.013-1.092a.86.86 0 0 0 .607-.608c.698-2.608 2.143-2.863 4.038-2.355a.867.867 0 0 0 .83-.223c1.891-1.891 3.168-1.427 4.596 0a.866.866 0 0 0 .83.223c2.554-.684 3.516.405 4.037 2.355a.86.86 0 0 0 .608.608c.877.234 1.427.333 2.013 1.092h3.162V3.912c0-.384-.085-.748-.235-1.076-.115-.249-1.998 2.202-2.182 2.003-.202-.218 1.287-3.08 1.02-3.218a2.562 2.562 0 0 0-1.181-.288ZM11.451 8.014s-.953-.17-1.288-.506l-2.32-1.956c.016-.065.617-.529.617-.529s.634-.105 1.272 0l1.2 2.027c.335.336.52.867.52.964Zm4.991-2.76c0 .475-.244 2.227-.278 2.261-.122-.017-.83-1.707-.83-2.182V4c0-.475.714-1.137.724-1.164.025.027.332.707.332 1.182l.052 1.236ZM24 5.882l-2.319 1.633c-.336.336-1.127.51-1.132.5-.026-.021.596-1.075.931-1.411L22.7 5.29c.336-.336 1.294-.634 1.3-.624-.021.036.01 1.195 0 1.215ZM2.193 25.51c-.295 0-.582.03-.86.087v2.492c0 .393.09.767.248 1.1.132.28.81-.577.824-.55.2.195.138 1.652.392 1.774.337.163.715.254 1.115.254h2.49a4.302 4.302 0 0 0-4.21-5.156ZM25.51 20.354h-5.3A4.3 4.3 0 0 1 16 23.792a4.3 4.3 0 0 1-4.21-3.438h-5.3v5.257a5.99 5.99 0 0 1 1.719 4.196c0 .295-.046.577-.088.86h3.94l2.71-.622 6.32.3 2.787.322c-.04-.283-.087-.565-.087-.86a5.99 5.99 0 0 1 1.719-4.196v-5.257ZM29.808 25.51a4.302 4.302 0 0 0-4.21 5.157h2.49c.452 0 .876-.117 1.245-.321.255-.141-.2-1.902-.007-2.117-.021-.003 1.011 1.149 1.122.9.14-.319.219-.67.219-1.04v-2.491a4.291 4.291 0 0 0-.86-.087Z" mask="url(#f)"/><path stroke="#40240C" stroke-width=".4" d="M28.089 15.198h-6.045l-.6.714-2.422-.714h-6.044l-1.367.465-1.655-.465H3.912a2.581 2.581 0 0 0-2.579 2.578v6.103c.284-.042.565-.087.86-.087.926 0 1.794.228 2.578.603v-7.478H6.49v1.718h5.213v-1.718h1.719v2.578A2.575 2.575 0 0 0 16 22.073a2.575 2.575 0 0 0 2.578-2.578v-2.578h1.719v1.718h5.214v-1.718h1.718v7.478a5.948 5.948 0 0 1 2.579-.603c.294 0 .576.045.859.087v-6.103a2.581 2.581 0 0 0-2.578-2.578Zm-12.097 5.173a.874.874 0 0 1-.868-.868c0-.475.392-.868.868-.868.475 0 .867.393.867.868a.874.874 0 0 1-.867.868Z" mask="url(#f)"/><defs><linearGradient id="a" x1="10.613" x2="-16.789" y1="-34.6" y2="15.756" gradientUnits="userSpaceOnUse"><stop stop-color="#C09740"/><stop offset="1" stop-color="#744810"/></linearGradient><linearGradient id="b" x1="10.613" x2="-16.789" y1="-34.6" y2="15.756" gradientUnits="userSpaceOnUse"><stop stop-color="#C09740"/><stop offset="1" stop-color="#744810"/></linearGradient><linearGradient id="c" x1="10.613" x2="-16.789" y1="-34.6" y2="15.756" gradientUnits="userSpaceOnUse"><stop stop-color="#C09740"/><stop offset="1" stop-color="#744810"/></linearGradient><linearGradient id="d" x1="10.613" x2="-16.789" y1="-34.6" y2="15.756" gradientUnits="userSpaceOnUse"><stop stop-color="#C09740"/><stop offset="1" stop-color="#744810"/></linearGradient><linearGradient id="e" x1="10.613" x2="-16.789" y1="-34.6" y2="15.756" gradientUnits="userSpaceOnUse"><stop stop-color="#C09740"/><stop offset="1" stop-color="#744810"/></linearGradient></defs></svg>