<svg xmlns="http://www.w3.org/2000/svg" width="32" height="34" fill="none"><path fill="url(#a)" stroke="#40240C" stroke-width=".2" d="M3.9 8.188v.024l.01.021 1.462 2.937-1.436 1.193-.036.03v16.356c0 .106.049.205.117.294.068.09.164.178.273.264.219.172.51.347.802.516l.184.105c.232.133.456.262.643.384.118.078.219.15.296.22.078.069.123.126.142.17a.11.11 0 0 1-.003.099.391.391 0 0 1-.117.126c-.122.093-.304.18-.495.268l-.03.014c-.174.081-.355.165-.471.253a.372.372 0 0 0-.143.183c-.025.09.008.17.072.237.735.75 1.73 1.218 2.813 1.218h14.7c.104 0 .203-.04.293-.1.09-.06.18-.143.266-.24a5.82 5.82 0 0 0 .513-.706l.143-.222c.117-.185.232-.364.342-.52.076-.108.149-.202.217-.277a.725.725 0 0 1 .18-.152c.003.001.01.006.02.016.031.03.069.09.11.18a6.137 6.137 0 0 1 .256.73c.074.242.15.484.224.652a.658.658 0 0 0 .139.217c.028.026.07.051.122.052a.177.177 0 0 0 .128-.058c.4-.409.68-1.095.862-1.816a9.079 9.079 0 0 0 .269-2.107v-8.737l-.154.1-1.01.65 1.16-3.732.004-.015V5.251a4.493 4.493 0 0 0-.908-2.711c-.046-.062-.112-.107-.195-.1a.289.289 0 0 0-.173.097 2 2 0 0 0-.24.351l-.012.02a2.095 2.095 0 0 1-.24.353.235.235 0 0 1-.09.067c-.016.004-.03.004-.053-.01-.136-.094-.288-.281-.455-.526-.102-.149-.204-.31-.309-.478a28.699 28.699 0 0 0-.207-.326 5.012 5.012 0 0 0-.56-.742C23.136 1.05 22.92.9 22.685.9H7.983c-.384 0-1.09.047-1.75.171a5.05 5.05 0 0 0-.917.25c-.262.105-.487.24-.6.42-.1.16-.035.336.053.48.09.146.23.3.361.446l.007.007c.137.152.264.292.34.418.078.131.077.202.043.248a2.15 2.15 0 0 1-.459.437 8.485 8.485 0 0 1-.263.185c-.089.06-.177.121-.262.184-.341.254-.636.56-.636 1.105v2.937Zm5.004-4.552.012-.007.009-.01a.1.1 0 0 1 .072-.026.1.1 0 0 1 .072.026l.009.01.012.007c.247.15.782.531 1.254 1.054.473.525.87 1.178.87 1.875 0 .65-.403 1.15-.934 1.293-.473.071-.867-.074-1.13-.425l-.072-.096-.082.087c-.34.363-.74.505-1.211.434-.604-.145-1.006-.645-1.006-1.293 0-.697.397-1.35.87-1.875a6.186 6.186 0 0 1 1.255-1.054Zm6.698 19.002c-.192.137-.422.12-.522.013l-.008-.008-.01-.007a17.804 17.804 0 0 1-2.052-1.59.4.4 0 0 1-.076-.13 2.387 2.387 0 0 1-.09-.273 14.01 14.01 0 0 1-.18-.765l-.003-.011c-.059-.27-.118-.546-.18-.772a2.881 2.881 0 0 0-.1-.306.677.677 0 0 0-.124-.212.219.219 0 0 0-.094-.059.19.19 0 0 0-.11.001.354.354 0 0 0-.155.113c-.081.093-.162.235-.235.364l-.005.009a2.15 2.15 0 0 1-.213.333.26.26 0 0 1-.048.042.096.096 0 0 1-.006-.006C10.316 18.068 9.46 16.5 9.46 14.836c0-1.736 1.058-3.16 2.6-3.535a3.28 3.28 0 0 1 3.16 1.2l.081.105.078-.108c.702-.973 1.893-1.498 3.228-1.197h.003a.21.21 0 0 1 .102.063c.04.04.082.096.125.167.087.144.17.333.254.534l.054.131c.064.157.129.315.194.45.041.087.085.168.13.236a.613.613 0 0 0 .154.167c.06.041.126.053.191.04a.396.396 0 0 0 .16-.081c.09-.07.178-.177.254-.27l.004-.005a1.41 1.41 0 0 1 .208-.225.16.16 0 0 1 .04-.021 3.616 3.616 0 0 1 .729 2.345v.002c-.018.911-.288 1.794-.706 2.621-.046.092-.084.23-.118.383-.028.128-.056.274-.083.42l-.016.087a8.32 8.32 0 0 1-.105.495c-.038.15-.077.26-.116.319-.044.068-.087.088-.127.095a.52.52 0 0 1-.182-.015l-.011-.002a.804.804 0 0 0-.244-.02.41.41 0 0 0-.278.157c-1.326 1.605-2.944 2.797-3.62 3.264Zm4.875-10.152h.001-.001Zm1.213 17.878-.011.007-.01.01a.1.1 0 0 1-.072.026.1.1 0 0 1-.071-.026l-.01-.01-.011-.007a6.187 6.187 0 0 1-1.255-1.054c-.473-.525-.87-1.178-.87-1.875 0-.65.403-1.15.934-1.293.474-.071.867.073 1.131.425l.08.107.08-.107c.27-.36.735-.568 1.194-.428l.006.002c.6.142.937.636.937 1.294v.005c.035.695-.343 1.346-.807 1.87a5.954 5.954 0 0 1-1.245 1.054Z"/><defs><linearGradient id="a" x1="11.17" x2="-23.227" y1="-38.2" y2="6.575" gradientUnits="userSpaceOnUse"><stop stop-color="#C09740"/><stop offset="1" stop-color="#744810"/></linearGradient></defs></svg>