<svg xmlns="http://www.w3.org/2000/svg" width="32" height="32" fill="none"><path fill="url(#a)" d="M28.651 25.805A15.798 15.798 0 0 0 32 16.071c0-1.58-.233-3.107-.667-4.55-.113-.375-1.191 1.059-1.16.967-.062.061.448-2.892.258-3.286-.41-.85-.895-1.658-1.444-2.417a2.016 2.016 0 0 0-.106-.163l-.007.005c-2.153-2.9-5.936-5.692-9.54-6.62C18.681-.161 18 2.797 18 2.797S17.763.144 17.086.144c-1.954 0-4.913.352-6.646.994l-.004-.003-.003.006a16.076 16.076 0 0 0-8.618 7.569c-.14.266 1.427 4.179 1.382 4.191-.017 0-2.05-2.761-2.17-2.444A15.74 15.74 0 0 0 0 16.07c0 4.434 1.829 8.45 4.775 11.34.699.686 1.46 1.309 2.276 1.858.353.239 1.01-3.56 1.01-3.56s.847 4.646 1.243 4.828A15.967 15.967 0 0 0 16 32c5.06 0 9.066-1.783 12-5.445h-2.667l3.318-.75Zm-6.975-10.447 4.509-1.376 3.556 3.611a13.644 13.644 0 0 1-2.34 6.255l-5.026.124-2.062-4.438.34-1.044 2.128 1.167-1.446-3.255.341-1.044ZM26.81 7.5a520 520 0 0 1-1.2 4.394l-4.623 1.412-.975-.706-.976 2.008v-2.713l-.975-.706-.975-.705V6.066l4.816-2.442c1.92.906 3.596 2.24 4.908 3.877ZM10.31 3.53l4.605 2.515v4.441l-.966.699-1.206-1.928-.726 3.325-.966.699-4.689-1.218A473.924 473.924 0 0 1 5.135 7.57c.43-.543.9-1.054 1.405-1.526.238-.223 1.438 1.267 1.543 1.279-.02-.012-.229-2.372.073-2.58A13.86 13.86 0 0 1 10.31 3.53Zm-.905 20.443-4.807-.127a13.644 13.644 0 0 1-2.319-6.098l3.538-3.593 4.497 1.168.349 1.07-1.881 3.198 2.23-2.128.698 2.139-2.305 4.371Zm4.966 5.765-3.063-4.722 2-3.79h1.35l3.023 1.51-.323-1.51h1.35l1.746 3.76-3.103 4.785c-.444.043-.894.067-1.35.067-.552 0-1.095-.037-1.63-.1Z"/><defs><linearGradient id="a" x1="21.877" x2="51.77" y1="-39.2" y2="15.734" gradientUnits="userSpaceOnUse"><stop stop-color="#C09740"/><stop offset="1" stop-color="#744810"/></linearGradient></defs></svg>