<svg xmlns="http://www.w3.org/2000/svg" width="32" height="32" fill="none"><g clip-path="url(#a)"><path fill="url(#b)" d="M12.456 31.537c.081-.1.166-.186.23-.285.107-.165.058-.296-.135-.332a2.674 2.674 0 0 0-.55-.044c-.56.014-1.12.045-1.68.062-.125.004-.251-.01-.374-.03-.401-.067-.596-.337-.527-.74.173-1.01.349-2.018.528-3.027.018-.102-.006-.148-.104-.19-.493-.205-.986-.409-1.468-.636a1.96 1.96 0 0 1-.48-.349c-.18-.167-.17-.283-.022-.47.074-.092.144-.192.196-.298.096-.2.06-.377-.126-.499a2.363 2.363 0 0 0-.509-.246c-.347-.122-.705-.217-1.051-.341-.139-.05-.257-.151-.39-.218-.048-.024-.12-.04-.167-.02-.94.385-1.88.776-2.819 1.167-.163.067-.329.143-.504.064-.105-.048-.225-.11-.286-.201-.492-.738-.976-1.482-1.451-2.231a2.356 2.356 0 0 1-.22-.503c-.048-.142-.003-.178.141-.178.052 0 .125-.028.154-.069.268-.372.277-.771.074-1.17-.138-.269-.312-.52-.461-.784-.136-.242-.286-.482-.385-.74-.173-.456-.023-.758.424-.944.935-.387 1.868-.778 2.804-1.164.087-.036.128-.074.111-.174a65.527 65.527 0 0 1-.196-1.208c-.059-.388-.154-.774-.078-1.17.047-.25.167-.329.413-.287.05.01.11.004.157-.013.484-.181.71-.55.652-1.065-.027-.247-.068-.493-.087-.741-.012-.158-.024-.325.016-.474.04-.151-.025-.213-.123-.29A581.73 581.73 0 0 1 1.87 9.89c-.224-.177-.298-.429-.19-.68a69.09 69.09 0 0 1 .794-1.802c.163-.352.4-.654.739-.864.084-.052.175-.093.27-.143l.044.123c.072.204.211.252.358.094.196-.211.375-.44.541-.675.396-.562.778-1.134 1.17-1.698a.954.954 0 0 1 .202-.199.585.585 0 0 1 .76.001l2.326 1.838.135.102.378-.334c.257-.229.5-.475.773-.683.289-.22.639-.272.997-.24.037.004.09.067.098.109.022.136.014.279.041.414.06.3.246.403.5.238.328-.213.627-.473.936-.718.285-.226.565-.458.85-.686a.286.286 0 0 1 .115-.067c.225-.04.265-.2.297-.393.156-.952.325-1.902.486-2.854.057-.338.248-.54.588-.578.655-.071 1.31-.15 1.968-.192.413-.026.893.11 1.149.258-.038.051-.08.1-.112.154-.09.145-.064.26.1.302.236.058.48.1.722.11.555.024 1.111.017 1.666.038.228.009.46.04.681.093.336.08.5.352.442.69-.175 1.01-.35 2.02-.53 3.028-.021.123 0 .197.134.223.29.058.577.12.864.184.437.098.753.33.871.784.019.07.024.111-.05.159-.169.11-.187.25-.035.397.15.145.316.277.49.39.36.235.735.445 1.093.682.21.14.397.316.6.467.036.027.11.03.153.013.909-.374 1.814-.753 2.722-1.128.124-.052.251-.102.382-.125a.503.503 0 0 1 .472.173c.335.37.67.74 1 1.113.259.293.44.627.393 1.03a1.9 1.9 0 0 1-.169.629c-.245.488-.15.94.097 1.38.217.387.464.756.679 1.144.1.18.171.381.226.58.09.325-.07.621-.382.751-.957.4-1.914.8-2.874 1.192-.117.048-.157.102-.123.22.088.3.173.6.26.901.076.268.154.535.107.821-.055.336-.256.56-.541.742-.035-.058-.06-.112-.096-.157-.029-.036-.083-.095-.105-.087a.182.182 0 0 0-.101.11 6.676 6.676 0 0 0-.121.614c-.085.621-.137 1.248-.256 1.863-.046.24.01.346.186.48.732.563 1.454 1.14 2.178 1.712.283.224.336.505.16.82-.188.338-.463.6-.75.849-.56.485-.949 1.06-1.006 1.814-.019 0-.026.003-.029 0-.395-.303-.698-.156-.926.183-.213.317-.39.659-.57.997-.2.378-.366.777-.666 1.093-.3.318-.598.334-.937.066-.782-.62-1.566-1.24-2.349-1.858-.011-.01-.025-.016-.064-.038-.178.161-.365.324-.544.495-.271.259-.533.528-.877.694-.352.17-.724.212-1.103.179.015-.134.037-.261.04-.39.002-.135-.068-.199-.2-.17-.12.025-.243.068-.346.133-.43.272-.85.56-1.281.831-.16.1-.34.169-.504.262-.051.029-.112.086-.121.139-.12.656-.23 1.313-.343 1.97-.063.367-.123.736-.19 1.102-.06.322-.249.5-.567.55-.626.099-1.25.205-1.878.295-.387.055-.777.087-1.162-.019-.233-.064-.428-.183-.549-.393Zm-2.314-15.19c.022.18.046.535.113.88.54 2.811 3.241 4.623 6.159 4.002 1.646-.35 2.904-1.275 3.755-2.716.85-1.44 1.039-2.98.503-4.57-.832-2.466-3.32-3.855-5.908-3.342-2.667.53-4.606 2.882-4.622 5.746Z"/></g><defs><linearGradient id="b" x1="9.841" x2="-20.503" y1="-39.2" y2="15.016" gradientUnits="userSpaceOnUse"><stop stop-color="#C09740"/><stop offset="1" stop-color="#744810"/></linearGradient><clipPath id="a"><path fill="#fff" d="M0 0h32v32H0z"/></clipPath></defs></svg>