<svg xmlns="http://www.w3.org/2000/svg" width="32" height="32" fill="none"><path fill="url(#a)" stroke="#40240C" stroke-width=".2" d="m15.912 2.749.155-.163-.225-.006c-1.914-.05-4.408.103-6.227.332-.494.063-.737.38-.948.671l-.02.028c-.207.286-.388.536-.745.615-.31.068-.465-.007-.686-.115a4.19 4.19 0 0 0-.208-.096c-.354-.15-.853-.257-1.891-.027l-.013.004c-1.14.412-2.055.869-2.687 1.35-.629.48-.996 1-.996 1.541 0 .541.367 1.06.996 1.54.632.482 1.547.94 2.687 1.353 2.29.817 5.216 1.282 8.234 1.396l.125.005-.023-.122a9.626 9.626 0 0 1-.154-1.722c0-2.551.998-4.869 2.626-6.584Zm-2.026 9.928-.023-.063-.068-.002c-1.598-.04-3.383-.158-4.88-.381h-.003c-.314-.036-.549.019-.73.127-.18.107-.297.262-.389.405a4.93 4.93 0 0 0-.086.143l-.038.063a1.201 1.201 0 0 1-.108.159.283.283 0 0 1-.102.082.204.204 0 0 1-.125.007.69.69 0 0 1-.444-.273 2.094 2.094 0 0 1-.15-.236l-.023-.041c-.044-.078-.093-.163-.15-.25-.273-.424-.737-.903-1.986-1.267-1.257-.492-2.255-.982-3-1.548l-.16-.122v4.396c0 .542.367 1.062.996 1.541.632.482 1.547.939 2.687 1.352 3.578 1.277 8.709 1.695 13.325 1.257l.339-.032-.302-.156a9.6 9.6 0 0 1-4.58-5.16Zm7.26 6.94h-.013l-.013.002c-1.325.28-2.776.361-4.323.448-.23.012-.462.025-.697.04-1.792.105-3.698.256-5.654.76-1.722-1.287-3.336-1.827-5.02-2.39a59.699 59.699 0 0 1-1.252-.43l-.003-.002c-1.255-.408-2.253-.898-2.998-1.465l-.209-.159.05.257.52 2.703-.697 1.447-.01.02v.023c0 .587.42 1.103 1.094 1.557.678.456 1.638.867 2.777 1.238 2.662.951 6.186 1.425 9.715 1.425 3.53 0 7.075-.474 9.78-1.425 1.1-.372 2.015-.808 2.657-1.29.64-.48 1.029-1.02 1.029-1.603v-3.577l-.155.103c-1.508 1-3.486 1.433-5.444 1.433a.313.313 0 0 0-.155.053 1.253 1.253 0 0 0-.15.11c-.1.085-.214.196-.326.303l-.01.01c-.116.112-.228.22-.324.3a.955.955 0 0 1-.123.088c-.036.021-.049.02-.045.021Zm3.98 5.44c-.414.149-.838.245-1.284.347l-.396.091c-.584.14-1.2.312-1.853.634-1.137-.07-2.471.17-3.754.542a21.59 21.59 0 0 0-3.44 1.338c-.731-.586-1.951-1.044-3.245-1.354-1.317-.315-2.727-.48-3.814-.465-.88-.502-1.493-.706-2.149-.925a26.875 26.875 0 0 1-.608-.208l-.004-.001a10.155 10.155 0 0 1-2.998-1.548l-.16-.12v4.396c0 .54.367 1.06.996 1.54.632.482 1.547.939 2.687 1.351 2.87 1.025 5.46 1.3 10.412.726 4.338.316 6.584.154 9.087-.726h.002c1.098-.413 2.012-.87 2.654-1.351.637-.478 1.028-.998 1.028-1.542v-4.386l-.157.11a12.805 12.805 0 0 1-3.005 1.551Zm-7.686-9.701.006.008.008.007a8.1 8.1 0 0 0 13.5-6.037c0-1.195-.183-2.141-.679-2.943-.491-.793-1.283-1.432-2.478-2.031-.866-2.157-2.875-3.127-4.943-3.127a8.1 8.1 0 0 0-8.1 8.1c0 .276.043.506.133.713.09.206.223.385.396.56.171.175.384.35.634.549l.181.143c.197.155.415.328.656.527-.007.191-.05.373-.099.575-.051.215-.108.45-.116.72-.017.55.161 1.229.901 2.236Zm6.528-7.273v.1H25.604a1.15 1.15 0 0 1 0 2.3H23.968V12.12a1.114 1.114 0 0 1-2.228 0V10.483H20.104a1.15 1.15 0 0 1 0-2.3H21.74V6.548a1.114 1.114 0 0 1 2.228 0v1.535Z"/><defs><linearGradient id="a" x1="10.394" x2="-18.047" y1="-35.739" y2="15.946" gradientUnits="userSpaceOnUse"><stop stop-color="#C09740"/><stop offset="1" stop-color="#744810"/></linearGradient></defs></svg>