<svg xmlns="http://www.w3.org/2000/svg" width="32" height="32" fill="none"><path fill="url(#a)" fill-rule="evenodd" d="M23.26 17.333a8 8 0 0 0 8-8c0-2.369-.725-3.702-3.135-4.9-.84-2.135-2.816-3.1-4.865-3.1a8 8 0 0 0-8 8c0 .856.435 1.2 1.306 1.886.207.163.438.346.695.56 0 .22-.05.426-.101.64-.156.65-.332 1.382.767 2.877a7.97 7.97 0 0 0 5.333 2.037Zm0-4h-.01.021-.01ZM10.034 3.012c1.814-.23 4.303-.382 6.212-.332a9.635 9.635 0 0 0-2.654 6.653c0 .594.054 1.175.156 1.74-3.011-.115-5.926-.579-8.203-1.391-2.271-.823-3.618-1.812-3.618-2.799 0-.987 1.347-1.976 3.618-2.797 1.237-.274 1.676-.06 2.023.11.227.112.415.204.761.127.396-.087.598-.366.8-.646.219-.303.438-.606.905-.665Zm-.727 9.317c1.502.224 3.291.343 4.892.383a9.7 9.7 0 0 0 4.627 5.215c-4.607.436-9.722.019-13.281-1.252-2.271-.823-3.618-1.81-3.618-2.799V9.682c.757.575 1.766 1.069 3.028 1.563 1.492.434 1.828 1.026 2.08 1.47.165.29.294.518.685.6.239.05.348-.136.48-.36.185-.314.415-.704 1.107-.626Zm12.24 7.388c-1.333.282-2.792.363-4.339.45-2.006.111-4.16.232-6.377.809-1.723-1.297-3.33-1.835-5.025-2.403-.414-.139-.833-.279-1.26-.432-1.262-.411-2.27-.905-3.028-1.482l.527 2.735-.712 1.477c0 1.07 1.532 1.96 3.803 2.7 5.298 1.893 14.047 1.893 19.431 0 2.188-.74 3.618-1.727 3.618-2.798v-3.39c-1.529 1.012-3.527 1.449-5.499 1.449-.108 0-.334.22-.562.44-.234.225-.469.452-.577.445Zm2.72 5.785c.447-.102.88-.2 1.298-.35a12.904 12.904 0 0 0 3.028-1.564v4.194c0 .989-1.43 1.976-3.617 2.799-2.486.873-4.717 1.036-9.056.72-4.948.575-7.523.299-10.375-.72-2.271-.821-3.618-1.81-3.618-2.797v-4.196a10.254 10.254 0 0 0 3.028 1.563c.215.078.417.145.614.21.66.22 1.268.423 2.152.93 2.161-.038 5.658.655 7.072 1.837 1.898-.95 4.974-2.047 7.227-1.897.797-.399 1.541-.568 2.247-.729ZM25.907 8C26.51 8 27 8.56 27 9.25s-.49 1.25-1.094 1.25h-4.812C20.49 10.5 20 9.94 20 9.25S20.49 8 21.094 8h4.812Z" clip-rule="evenodd"/><path stroke="#40240C" stroke-width=".2" d="m17.846 15.356.006.008.008.007a8.1 8.1 0 0 0 13.5-6.037c0-1.195-.182-2.141-.678-2.943-.492-.793-1.283-1.432-2.479-2.031-.865-2.157-2.875-3.127-4.943-3.127a8.1 8.1 0 0 0-8.1 8.1c0 .45.116.77.348 1.068.225.288.56.552.986.89l.01.006c.197.156.415.329.656.528-.006.19-.05.371-.098.571v.004c-.078.324-.165.685-.088 1.156.078.472.317 1.044.872 1.8ZM16.32 2.749l.154-.163-.224-.006c-1.915-.05-4.409.103-6.227.332-.51.065-.753.4-.969.699l-.005.008c-.205.283-.386.529-.74.607a.838.838 0 0 1-.382.007c-.105-.025-.199-.07-.314-.126H7.61a2.106 2.106 0 0 0-.708-.231c-.323-.043-.754-.026-1.38.112l-.012.004c-1.14.412-2.056.869-2.688 1.35-.628.48-.996 1-.996 1.541 0 .541.368 1.06.996 1.54.632.482 1.547.94 2.688 1.353 2.29.817 5.215 1.282 8.234 1.396l.124.005-.022-.122a9.626 9.626 0 0 1-.155-1.722c0-2.551.999-4.869 2.627-6.584ZM9.322 12.23H9.32c-.369-.042-.626.04-.816.185-.183.138-.295.329-.385.482l-.004.006a1.183 1.183 0 0 1-.182.26.196.196 0 0 1-.192.053.696.696 0 0 1-.376-.194 1.68 1.68 0 0 1-.241-.357l-.001-.001c-.127-.224-.281-.495-.597-.765-.315-.269-.784-.53-1.538-.75-1.257-.492-2.254-.982-3-1.548l-.16-.122v4.396c0 .542.368 1.062.996 1.541.632.482 1.547.939 2.688 1.352 3.577 1.277 8.708 1.695 13.324 1.257l.34-.032-.303-.156a9.601 9.601 0 0 1-4.58-5.16l-.023-.064-.067-.002c-1.6-.04-3.384-.158-4.88-.381Zm12.231 7.386h-.014l-.013.002c-1.324.28-2.775.361-4.323.448h-.004c-1.99.111-4.137.23-6.347.8-1.72-1.286-3.33-1.825-5.01-2.387l-.004-.002a59.806 59.806 0 0 1-1.258-.431l-.003-.002c-1.255-.408-2.253-.898-2.998-1.465l-.208-.159.05.257.52 2.703-.698 1.447-.01.02v.023c0 .587.42 1.103 1.094 1.557.678.456 1.639.867 2.777 1.238 2.663.951 6.186 1.425 9.715 1.425 3.53 0 7.075-.474 9.78-1.425 1.1-.372 2.015-.808 2.658-1.29.64-.48 1.028-1.02 1.028-1.603v-3.577l-.155.103c-1.508 1-3.485 1.433-5.444 1.433a.31.31 0 0 0-.153.052 1.212 1.212 0 0 0-.147.108 6.587 6.587 0 0 0-.33.306l-.002.002a6.347 6.347 0 0 1-.33.305.98.98 0 0 1-.125.09c-.037.022-.05.022-.046.022Zm3.979 5.44c-.413.148-.839.245-1.287.348h-.003c-.698.16-1.444.33-2.242.724-1.137-.07-2.472.17-3.755.542-1.268.369-2.493.87-3.44 1.338-.731-.586-1.95-1.044-3.245-1.354-1.316-.315-2.727-.48-3.814-.465-.879-.501-1.489-.705-2.145-.923-.197-.066-.398-.133-.612-.21l-.003-.001a10.155 10.155 0 0 1-3-1.548l-.16-.12v4.396c0 .54.369 1.06.997 1.54.632.482 1.547.939 2.688 1.351 2.869 1.025 5.46 1.3 10.41.726 4.339.316 6.585.154 9.088-.726h.002c1.098-.413 2.013-.87 2.654-1.351.637-.478 1.029-.998 1.029-1.542v-4.386l-.158.11a12.805 12.805 0 0 1-3.004 1.551ZM25.906 8.1c.537 0 .994.502.994 1.15 0 .648-.457 1.15-.994 1.15h-4.812c-.537 0-.994-.502-.994-1.15 0-.648.457-1.15.994-1.15h4.812Z"/><defs><linearGradient id="a" x1="10.8" x2="-17.641" y1="-35.739" y2="15.946" gradientUnits="userSpaceOnUse"><stop stop-color="#C09740"/><stop offset="1" stop-color="#744810"/></linearGradient></defs></svg>